<svg width="163" height="149" viewBox="0 0 163 149" fill="none" xmlns="http://www.w3.org/2000/svg">
<path d="M134.08 114.543C124.819 121.162 87.2812 138.341 67.8111 147.074C60.8774 150.199 52.7471 148.02 48.3046 141.848C35.8098 124.549 11.9218 90.9114 7.17962 80.5397C-0.0537882 64.7506 -1.73424 51.1136 1.85306 37.7257C5.35732 24.6476 13.0308 13.816 23.4885 7.18487C34.0948 0.493898 46.6368 -1.42678 58.8477 1.84512C67.9982 4.29698 75.5643 9.4466 81.3938 17.1203C84.4217 21.1535 86.8755 25.5976 88.6175 30.3492C92.5244 27.1445 96.849 24.4834 101.488 22.5045C110.381 18.7426 119.531 18.1052 128.682 20.5571C140.924 23.8373 150.825 31.7716 156.634 42.8611C162.344 53.8243 163.613 67.0188 160.1 80.1279C156.544 93.5241 148.27 104.494 134.08 114.543Z" fill="#F2753E"/>
</svg>
