<svg width="60" height="61" viewBox="0 0 60 61" fill="none" xmlns="http://www.w3.org/2000/svg">
<path d="M38.157 14.1626C40.4381 19.1926 43.2375 25.3653 45.339 27.8172C45.7493 26.8646 45.7054 25.2673 46.1743 21.3691C46.5978 17.849 49.5009 17.515 50.7465 17.7641C53.5016 18.3386 54.3409 21.1311 54.249 22.1605C54.1024 23.8018 54.0954 23.746 53.7947 27.7146C53.3551 33.5178 55.5972 37.8996 55.8024 42.8675C55.8024 52.2318 47.5958 56.8333 41.8512 56.8333C37.2555 56.8333 32.6579 53.8926 30.9335 52.4223L22.3166 44.5527C21.2615 43.7321 18.6536 41.0244 17.5097 39.4676C14.3912 35.2236 18.9021 32.3015 21.4372 33.0342C21.2378 32.8818 20.0353 30.9288 19.4589 29.9714C17.9114 26.8646 19.4589 24.7951 20.602 24.2268C23.1959 22.9372 25.101 24.388 25.7018 25.1793C25.4722 24.7886 24.7522 23.2098 23.5916 20.314C22.4309 17.4183 24.2999 15.6294 25.3794 15.097C27.7242 14.0125 29.9517 15.3901 30.5085 16.6211C30.7812 17.2239 32.2521 20.4455 32.8926 21.8663C32.41 20.6882 31.5357 18.3476 31.2266 17.2659C30.6111 14.716 32.0911 12.9672 33.029 12.5178C34.3332 11.8929 37.0535 11.7293 38.1288 14.1005L38.157 14.1626Z" fill="url(#paint0_radial_2040_6575)"/>
<path d="M38.1569 14.1626C40.4381 19.1926 43.2374 25.3653 45.3389 27.8172C45.7492 26.8646 45.7053 25.2673 46.1742 21.3691C46.5977 17.849 49.5008 17.515 50.7464 17.7641C53.5015 18.3386 54.3408 21.1311 54.2489 22.1605C54.1024 23.8018 54.0953 23.746 53.7946 27.7146C53.355 33.5178 55.5971 37.8996 55.8023 42.8675C55.8023 52.2318 47.5957 56.8333 41.8511 56.8333C37.2554 56.8333 32.6578 53.8926 30.9334 52.4223L22.3165 44.5527C21.2614 43.7321 18.6535 41.0244 17.5096 39.4676C14.3911 35.2236 18.902 32.3015 21.4371 33.0342C21.2378 32.8818 20.0352 30.9288 19.4589 29.9714C17.9113 26.8646 19.4588 24.7951 20.6019 24.2268C23.1958 22.9372 25.1009 24.388 25.7017 25.1793C25.4721 24.7886 24.7521 23.2098 23.5915 20.314C22.4308 17.4183 24.2998 15.6294 25.3793 15.097C27.7241 14.0125 29.9516 15.3901 30.5084 16.6211C30.7811 17.2239 32.2521 20.4455 32.8926 21.8663C32.4099 20.6882 31.5356 18.3476 31.2265 17.2659C30.611 14.716 32.0911 12.9672 33.0289 12.5178C34.3331 11.8929 37.0534 11.7293 38.1287 14.1005L38.1569 14.1626Z" fill="url(#paint1_radial_2040_6575)"/>
<path d="M54.249 22.1607C54.1024 23.802 54.0953 23.7462 53.7947 27.7148C53.6393 29.7653 54.7543 37.3172 54.7543 37.3172C52.0445 38.2021 46.1743 37.0289 45.339 27.8174C45.7493 26.8649 45.7053 25.2675 46.1743 21.3694C46.5978 17.8493 49.5009 17.5152 50.7465 17.7643C53.5016 18.3388 54.3409 21.1313 54.249 22.1607Z" fill="url(#paint2_radial_2040_6575)"/>
<path d="M54.249 22.1607C54.1024 23.802 54.0953 23.7462 53.7947 27.7148C53.6393 29.7653 54.7543 37.3172 54.7543 37.3172C52.0445 38.2021 46.1743 37.0289 45.339 27.8174C45.7493 26.8649 45.7053 25.2675 46.1743 21.3694C46.5978 17.8493 49.5009 17.5152 50.7465 17.7643C53.5016 18.3388 54.3409 21.1313 54.249 22.1607Z" fill="url(#paint3_radial_2040_6575)"/>
<path d="M54.249 22.1607C54.1024 23.802 54.0953 23.7462 53.7947 27.7148C53.6393 29.7653 54.7543 37.3172 54.7543 37.3172C52.0445 38.2021 46.1743 37.0289 45.339 27.8174C45.7493 26.8649 45.7053 25.2675 46.1743 21.3694C46.5978 17.8493 49.5009 17.5152 50.7465 17.7643C53.5016 18.3388 54.3409 21.1313 54.249 22.1607Z" fill="url(#paint4_radial_2040_6575)"/>
<path d="M38.157 14.1626C40.4381 19.1926 43.2375 25.3653 45.339 27.8172C45.0102 30.623 42.5025 31.9644 40.3417 31.4622C37.6171 30.6712 36.5837 28.7376 36.5837 28.7376C36.5837 28.7376 35.872 27.6362 35.1774 26.4232C34.3739 25.02 34.5205 25.0515 33.1757 22.5122C32.9118 22.014 31.6175 18.6336 31.2266 17.2659C30.6111 14.716 32.0911 12.9672 33.029 12.5178C34.3332 11.8929 37.0535 11.7293 38.1288 14.1005L38.157 14.1626Z" fill="url(#paint5_radial_2040_6575)"/>
<path d="M38.157 14.1626C40.4381 19.1926 43.2375 25.3653 45.339 27.8172C45.0102 30.623 42.5025 31.9644 40.3417 31.4622C37.6171 30.6712 36.5837 28.7376 36.5837 28.7376C36.5837 28.7376 35.872 27.6362 35.1774 26.4232C34.3739 25.02 34.5205 25.0515 33.1757 22.5122C32.9118 22.014 31.6175 18.6336 31.2266 17.2659C30.6111 14.716 32.0911 12.9672 33.029 12.5178C34.3332 11.8929 37.0535 11.7293 38.1288 14.1005L38.157 14.1626Z" fill="url(#paint6_linear_2040_6575)"/>
<path d="M38.157 14.1626C40.4381 19.1926 43.2375 25.3653 45.339 27.8172C45.0102 30.623 42.5025 31.9644 40.3417 31.4622C37.6171 30.6712 36.5837 28.7376 36.5837 28.7376C36.5837 28.7376 35.872 27.6362 35.1774 26.4232C34.3739 25.02 34.5205 25.0515 33.1757 22.5122C32.9118 22.014 31.6175 18.6336 31.2266 17.2659C30.6111 14.716 32.0911 12.9672 33.029 12.5178C34.3332 11.8929 37.0535 11.7293 38.1288 14.1005L38.157 14.1626Z" fill="url(#paint7_radial_2040_6575)"/>
<path d="M38.157 14.1626C40.4381 19.1926 43.2375 25.3653 45.339 27.8172C45.0102 30.623 42.5025 31.9644 40.3417 31.4622C37.6171 30.6712 36.5837 28.7376 36.5837 28.7376C36.5837 28.7376 35.872 27.6362 35.1774 26.4232C34.3739 25.02 34.5205 25.0515 33.1757 22.5122C32.9118 22.014 31.6175 18.6336 31.2266 17.2659C30.6111 14.716 32.0911 12.9672 33.029 12.5178C34.3332 11.8929 37.0535 11.7293 38.1288 14.1005L38.157 14.1626Z" fill="url(#paint8_radial_2040_6575)"/>
<path d="M38.157 14.1626C40.4381 19.1926 43.2375 25.3653 45.339 27.8172C45.0102 30.623 42.5025 31.9644 40.3417 31.4622C37.6171 30.6712 36.5837 28.7376 36.5837 28.7376C36.5837 28.7376 35.872 27.6362 35.1774 26.4232C34.3739 25.02 34.5205 25.0515 33.1757 22.5122C32.9118 22.014 31.6175 18.6336 31.2266 17.2659C30.6111 14.716 32.0911 12.9672 33.029 12.5178C34.3332 11.8929 37.0535 11.7293 38.1288 14.1005L38.157 14.1626Z" fill="url(#paint9_linear_2040_6575)"/>
<path d="M30.5085 16.6213C30.8753 17.4321 33.4101 22.9814 33.1757 22.5124C33.8575 24.0493 35.9684 27.8003 36.5836 28.8257C37.9403 31.0868 36.4092 32.9679 35.4198 33.5425C32.5766 35.1938 30.944 33.0884 30.944 33.0884C29.4445 30.8899 28.1901 29.0601 25.7145 25.1636C25.1178 24.0407 24.0299 21.5308 23.5915 20.3142C22.5094 17.311 24.2998 15.6296 25.3794 15.0972C27.7241 14.0127 29.9516 15.3903 30.5085 16.6213Z" fill="url(#paint10_radial_2040_6575)"/>
<path d="M30.5085 16.6213C30.8753 17.4321 33.4101 22.9814 33.1757 22.5124C33.8575 24.0493 35.9684 27.8003 36.5836 28.8257C37.9403 31.0868 36.4092 32.9679 35.4198 33.5425C32.5766 35.1938 30.944 33.0884 30.944 33.0884C29.4445 30.8899 28.1901 29.0601 25.7145 25.1636C25.1178 24.0407 24.0299 21.5308 23.5915 20.3142C22.5094 17.311 24.2998 15.6296 25.3794 15.0972C27.7241 14.0127 29.9516 15.3903 30.5085 16.6213Z" fill="url(#paint11_linear_2040_6575)"/>
<path d="M30.5085 16.6213C30.8753 17.4321 33.4101 22.9814 33.1757 22.5124C33.8575 24.0493 35.9684 27.8003 36.5836 28.8257C37.9403 31.0868 36.4092 32.9679 35.4198 33.5425C32.5766 35.1938 30.944 33.0884 30.944 33.0884C29.4445 30.8899 28.1901 29.0601 25.7145 25.1636C25.1178 24.0407 24.0299 21.5308 23.5915 20.3142C22.5094 17.311 24.2998 15.6296 25.3794 15.0972C27.7241 14.0127 29.9516 15.3903 30.5085 16.6213Z" fill="url(#paint12_radial_2040_6575)"/>
<path d="M30.5085 16.6213C30.8753 17.4321 33.4101 22.9814 33.1757 22.5124C33.8575 24.0493 35.9684 27.8003 36.5836 28.8257C37.9403 31.0868 36.4092 32.9679 35.4198 33.5425C32.5766 35.1938 30.944 33.0884 30.944 33.0884C29.4445 30.8899 28.1901 29.0601 25.7145 25.1636C25.1178 24.0407 24.0299 21.5308 23.5915 20.3142C22.5094 17.311 24.2998 15.6296 25.3794 15.0972C27.7241 14.0127 29.9516 15.3903 30.5085 16.6213Z" fill="url(#paint13_radial_2040_6575)"/>
<path d="M30.5085 16.6213C30.8753 17.4321 33.4101 22.9814 33.1757 22.5124C33.8575 24.0493 35.9684 27.8003 36.5836 28.8257C37.9403 31.0868 36.4092 32.9679 35.4198 33.5425C32.5766 35.1938 30.944 33.0884 30.944 33.0884C29.4445 30.8899 28.1901 29.0601 25.7145 25.1636C25.1178 24.0407 24.0299 21.5308 23.5915 20.3142C22.5094 17.311 24.2998 15.6296 25.3794 15.0972C27.7241 14.0127 29.9516 15.3903 30.5085 16.6213Z" fill="url(#paint14_radial_2040_6575)"/>
<path d="M30.5085 16.6213C30.8753 17.4321 33.4101 22.9814 33.1757 22.5124C33.8575 24.0493 35.9684 27.8003 36.5836 28.8257C37.9403 31.0868 36.4092 32.9679 35.4198 33.5425C32.5766 35.1938 30.944 33.0884 30.944 33.0884C29.4445 30.8899 28.1901 29.0601 25.7145 25.1636C25.1178 24.0407 24.0299 21.5308 23.5915 20.3142C22.5094 17.311 24.2998 15.6296 25.3794 15.0972C27.7241 14.0127 29.9516 15.3903 30.5085 16.6213Z" fill="url(#paint15_linear_2040_6575)"/>
<path d="M20.6021 24.2269C23.1959 22.9373 25.101 24.3881 25.7019 25.1795C27.5748 28.0053 29.8087 31.2189 30.8414 32.9272C33.5953 37.4828 27.9556 39.4604 27.9556 39.4604C22.7701 33.6156 21.8107 33.3199 21.4372 33.0343C21.2379 32.8819 20.0353 30.929 19.4589 29.9715C17.9114 26.8648 19.459 24.7952 20.6021 24.2269Z" fill="url(#paint16_radial_2040_6575)"/>
<path d="M20.6021 24.2269C23.1959 22.9373 25.101 24.3881 25.7019 25.1795C27.5748 28.0053 29.8087 31.2189 30.8414 32.9272C33.5953 37.4828 27.9556 39.4604 27.9556 39.4604C22.7701 33.6156 21.8107 33.3199 21.4372 33.0343C21.2379 32.8819 20.0353 30.929 19.4589 29.9715C17.9114 26.8648 19.459 24.7952 20.6021 24.2269Z" fill="url(#paint17_linear_2040_6575)"/>
<path d="M20.6021 24.2269C23.1959 22.9373 25.101 24.3881 25.7019 25.1795C27.5748 28.0053 29.8087 31.2189 30.8414 32.9272C33.5953 37.4828 27.9556 39.4604 27.9556 39.4604C22.7701 33.6156 21.8107 33.3199 21.4372 33.0343C21.2379 32.8819 20.0353 30.929 19.4589 29.9715C17.9114 26.8648 19.459 24.7952 20.6021 24.2269Z" fill="url(#paint18_radial_2040_6575)"/>
<path d="M20.6021 24.2269C23.1959 22.9373 25.101 24.3881 25.7019 25.1795C27.5748 28.0053 29.8087 31.2189 30.8414 32.9272C33.5953 37.4828 27.9556 39.4604 27.9556 39.4604C22.7701 33.6156 21.8107 33.3199 21.4372 33.0343C21.2379 32.8819 20.0353 30.929 19.4589 29.9715C17.9114 26.8648 19.459 24.7952 20.6021 24.2269Z" fill="url(#paint19_radial_2040_6575)"/>
<path d="M20.6021 24.2269C23.1959 22.9373 25.101 24.3881 25.7019 25.1795C27.5748 28.0053 29.8087 31.2189 30.8414 32.9272C33.5953 37.4828 27.9556 39.4604 27.9556 39.4604C22.7701 33.6156 21.8107 33.3199 21.4372 33.0343C21.2379 32.8819 20.0353 30.929 19.4589 29.9715C17.9114 26.8648 19.459 24.7952 20.6021 24.2269Z" fill="url(#paint20_radial_2040_6575)"/>
<path d="M20.6021 24.2269C23.1959 22.9373 25.101 24.3881 25.7019 25.1795C27.5748 28.0053 29.8087 31.2189 30.8414 32.9272C33.5953 37.4828 27.9556 39.4604 27.9556 39.4604C22.7701 33.6156 21.8107 33.3199 21.4372 33.0343C21.2379 32.8819 20.0353 30.929 19.4589 29.9715C17.9114 26.8648 19.459 24.7952 20.6021 24.2269Z" fill="url(#paint21_radial_2040_6575)"/>
<path d="M17.5096 39.4679C14.3911 35.2239 18.902 32.3018 21.4371 33.0345C22.6383 33.777 24.4915 35.6354 25.283 36.4723C30.3105 41.3756 29.4725 42.8883 28.0662 44.553C26.7038 45.6835 24.9324 46.5876 22.3165 44.553C21.2614 43.7324 18.6535 41.0247 17.5096 39.4679Z" fill="url(#paint22_radial_2040_6575)"/>
<path d="M17.5096 39.4679C14.3911 35.2239 18.902 32.3018 21.4371 33.0345C22.6383 33.777 24.4915 35.6354 25.283 36.4723C30.3105 41.3756 29.4725 42.8883 28.0662 44.553C26.7038 45.6835 24.9324 46.5876 22.3165 44.553C21.2614 43.7324 18.6535 41.0247 17.5096 39.4679Z" fill="url(#paint23_radial_2040_6575)"/>
<path d="M17.5096 39.4679C14.3911 35.2239 18.902 32.3018 21.4371 33.0345C22.6383 33.777 24.4915 35.6354 25.283 36.4723C30.3105 41.3756 29.4725 42.8883 28.0662 44.553C26.7038 45.6835 24.9324 46.5876 22.3165 44.553C21.2614 43.7324 18.6535 41.0247 17.5096 39.4679Z" fill="url(#paint24_radial_2040_6575)"/>
<path d="M17.5096 39.4679C14.3911 35.2239 18.902 32.3018 21.4371 33.0345C22.6383 33.777 24.4915 35.6354 25.283 36.4723C30.3105 41.3756 29.4725 42.8883 28.0662 44.553C26.7038 45.6835 24.9324 46.5876 22.3165 44.553C21.2614 43.7324 18.6535 41.0247 17.5096 39.4679Z" fill="url(#paint25_radial_2040_6575)"/>
<path d="M17.5096 39.4679C14.3911 35.2239 18.902 32.3018 21.4371 33.0345C22.6383 33.777 24.4915 35.6354 25.283 36.4723C30.3105 41.3756 29.4725 42.8883 28.0662 44.553C26.7038 45.6835 24.9324 46.5876 22.3165 44.553C21.2614 43.7324 18.6535 41.0247 17.5096 39.4679Z" fill="url(#paint26_linear_2040_6575)"/>
<path d="M38.1569 14.1626C40.4381 19.1926 43.2374 25.3653 45.3389 27.8172C45.7492 26.8646 45.7053 25.2673 46.1742 21.3691C46.5977 17.849 49.5008 17.515 50.7464 17.7641C53.5015 18.3386 54.3408 21.1311 54.2489 22.1605C54.1024 23.8018 54.0953 23.746 53.7946 27.7146C53.355 33.5178 55.5971 37.8996 55.8023 42.8675C55.8023 52.2318 47.5957 56.8333 41.8511 56.8333C37.2554 56.8333 32.6578 53.8926 30.9334 52.4223L22.3165 44.5527C21.2614 43.7321 18.6535 41.0244 17.5096 39.4676C14.3911 35.2236 18.902 32.3015 21.4371 33.0342C21.2378 32.8818 20.0352 30.9288 19.4589 29.9714C17.9113 26.8646 19.4588 24.7951 20.6019 24.2268C23.1958 22.9372 25.1009 24.388 25.7017 25.1793C25.4721 24.7886 24.7521 23.2098 23.5915 20.314C22.4308 17.4183 24.2998 15.6294 25.3793 15.097C27.7241 14.0125 29.9516 15.3901 30.5084 16.6211C30.7811 17.2239 32.2521 20.4455 32.8926 21.8663C32.4099 20.6882 31.5356 18.3476 31.2265 17.2659C30.611 14.716 32.0911 12.9672 33.0289 12.5178C34.3331 11.8929 37.0534 11.7293 38.1287 14.1005L38.1569 14.1626Z" fill="url(#paint27_radial_2040_6575)"/>
<path d="M38.1569 14.1626C40.4381 19.1926 43.2374 25.3653 45.3389 27.8172C45.7492 26.8646 45.7053 25.2673 46.1742 21.3691C46.5977 17.849 49.5008 17.515 50.7464 17.7641C53.5015 18.3386 54.3408 21.1311 54.2489 22.1605C54.1024 23.8018 54.0953 23.746 53.7946 27.7146C53.355 33.5178 55.5971 37.8996 55.8023 42.8675C55.8023 52.2318 47.5957 56.8333 41.8511 56.8333C37.2554 56.8333 32.6578 53.8926 30.9334 52.4223L22.3165 44.5527C21.2614 43.7321 18.6535 41.0244 17.5096 39.4676C14.3911 35.2236 18.902 32.3015 21.4371 33.0342C21.2378 32.8818 20.0352 30.9288 19.4589 29.9714C17.9113 26.8646 19.4588 24.7951 20.6019 24.2268C23.1958 22.9372 25.1009 24.388 25.7017 25.1793C25.4721 24.7886 24.7521 23.2098 23.5915 20.314C22.4308 17.4183 24.2998 15.6294 25.3793 15.097C27.7241 14.0125 29.9516 15.3901 30.5084 16.6211C30.7811 17.2239 32.2521 20.4455 32.8926 21.8663C32.4099 20.6882 31.5356 18.3476 31.2265 17.2659C30.611 14.716 32.0911 12.9672 33.0289 12.5178C34.3331 11.8929 37.0534 11.7293 38.1287 14.1005L38.1569 14.1626Z" fill="url(#paint28_radial_2040_6575)"/>
<path d="M38.1569 14.1626C40.4381 19.1926 43.2374 25.3653 45.3389 27.8172C45.7492 26.8646 45.7053 25.2673 46.1742 21.3691C46.5977 17.849 49.5008 17.515 50.7464 17.7641C53.5015 18.3386 54.3408 21.1311 54.2489 22.1605C54.1024 23.8018 54.0953 23.746 53.7946 27.7146C53.355 33.5178 55.5971 37.8996 55.8023 42.8675C55.8023 52.2318 47.5957 56.8333 41.8511 56.8333C37.2554 56.8333 32.6578 53.8926 30.9334 52.4223L22.3165 44.5527C21.2614 43.7321 18.6535 41.0244 17.5096 39.4676C14.3911 35.2236 18.902 32.3015 21.4371 33.0342C21.2378 32.8818 20.0352 30.9288 19.4589 29.9714C17.9113 26.8646 19.4588 24.7951 20.6019 24.2268C23.1958 22.9372 25.1009 24.388 25.7017 25.1793C25.4721 24.7886 24.7521 23.2098 23.5915 20.314C22.4308 17.4183 24.2998 15.6294 25.3793 15.097C27.7241 14.0125 29.9516 15.3901 30.5084 16.6211C30.7811 17.2239 32.2521 20.4455 32.8926 21.8663C32.4099 20.6882 31.5356 18.3476 31.2265 17.2659C30.611 14.716 32.0911 12.9672 33.0289 12.5178C34.3331 11.8929 37.0534 11.7293 38.1287 14.1005L38.1569 14.1626Z" fill="url(#paint29_radial_2040_6575)"/>
<path d="M41.3367 20.894C42.7444 23.7714 44.1507 26.349 45.3391 27.7604C45.4606 29.0159 45.5705 29.7337 45.8708 30.8177C43.4977 28.4447 41.2029 23.2555 41.3367 20.894Z" fill="url(#paint30_radial_2040_6575)"/>
<path fill-rule="evenodd" clip-rule="evenodd" d="M7.73627 32.5811C8.29438 32.5811 8.74683 33.0335 8.74683 33.5916C8.74683 35.2803 9.42971 37.5405 10.9007 39.3651C12.3465 41.1584 14.538 42.5169 17.6135 42.5169C18.1716 42.5169 18.624 42.9693 18.624 43.5274C18.624 44.0856 18.1716 44.538 17.6135 44.538C13.8599 44.538 11.1128 42.8483 9.32726 40.6336C7.5669 38.4501 6.72571 35.7424 6.72571 33.5916C6.72571 33.0335 7.17815 32.5811 7.73627 32.5811Z" fill="url(#paint31_radial_2040_6575)"/>
<path fill-rule="evenodd" clip-rule="evenodd" d="M7.73627 32.5811C8.29438 32.5811 8.74683 33.0335 8.74683 33.5916C8.74683 35.2803 9.42971 37.5405 10.9007 39.3651C12.3465 41.1584 14.538 42.5169 17.6135 42.5169C18.1716 42.5169 18.624 42.9693 18.624 43.5274C18.624 44.0856 18.1716 44.538 17.6135 44.538C13.8599 44.538 11.1128 42.8483 9.32726 40.6336C7.5669 38.4501 6.72571 35.7424 6.72571 33.5916C6.72571 33.0335 7.17815 32.5811 7.73627 32.5811Z" fill="url(#paint32_radial_2040_6575)"/>
<path fill-rule="evenodd" clip-rule="evenodd" d="M7.73627 32.5811C8.29438 32.5811 8.74683 33.0335 8.74683 33.5916C8.74683 35.2803 9.42971 37.5405 10.9007 39.3651C12.3465 41.1584 14.538 42.5169 17.6135 42.5169C18.1716 42.5169 18.624 42.9693 18.624 43.5274C18.624 44.0856 18.1716 44.538 17.6135 44.538C13.8599 44.538 11.1128 42.8483 9.32726 40.6336C7.5669 38.4501 6.72571 35.7424 6.72571 33.5916C6.72571 33.0335 7.17815 32.5811 7.73627 32.5811Z" fill="url(#paint33_radial_2040_6575)"/>
<path fill-rule="evenodd" clip-rule="evenodd" d="M4.59073 36.186C5.14884 36.186 5.60129 36.6385 5.60129 37.1966C5.60129 40.7786 8.28458 45.565 13.9193 45.565C14.4774 45.565 14.9299 46.0174 14.9299 46.5755C14.9299 47.1337 14.4774 47.5861 13.9193 47.5861C6.83383 47.5861 3.58017 41.528 3.58017 37.1966C3.58017 36.6385 4.03261 36.186 4.59073 36.186Z" fill="url(#paint34_radial_2040_6575)"/>
<path fill-rule="evenodd" clip-rule="evenodd" d="M4.59073 36.186C5.14884 36.186 5.60129 36.6385 5.60129 37.1966C5.60129 40.7786 8.28458 45.565 13.9193 45.565C14.4774 45.565 14.9299 46.0174 14.9299 46.5755C14.9299 47.1337 14.4774 47.5861 13.9193 47.5861C6.83383 47.5861 3.58017 41.528 3.58017 37.1966C3.58017 36.6385 4.03261 36.186 4.59073 36.186Z" fill="url(#paint35_radial_2040_6575)"/>
<path fill-rule="evenodd" clip-rule="evenodd" d="M42.443 19.365C41.8849 19.3687 41.4295 18.9192 41.4259 18.3611C41.4148 16.6724 40.7172 14.4167 39.2343 12.6018C37.7768 10.8179 35.5765 9.47385 32.5011 9.49395C31.943 9.49759 31.4876 9.04812 31.4839 8.49001C31.4803 7.93191 31.9298 7.47652 32.4879 7.47287C36.2414 7.44834 38.9995 9.12007 40.7994 11.323C42.574 13.4949 43.4329 16.1971 43.4469 18.3479C43.4506 18.906 43.0011 19.3614 42.443 19.365Z" fill="url(#paint36_radial_2040_6575)"/>
<path fill-rule="evenodd" clip-rule="evenodd" d="M42.443 19.365C41.8849 19.3687 41.4295 18.9192 41.4259 18.3611C41.4148 16.6724 40.7172 14.4167 39.2343 12.6018C37.7768 10.8179 35.5765 9.47385 32.5011 9.49395C31.943 9.49759 31.4876 9.04812 31.4839 8.49001C31.4803 7.93191 31.9298 7.47652 32.4879 7.47287C36.2414 7.44834 38.9995 9.12007 40.7994 11.323C42.574 13.4949 43.4329 16.1971 43.4469 18.3479C43.4506 18.906 43.0011 19.3614 42.443 19.365Z" fill="url(#paint37_radial_2040_6575)"/>
<path fill-rule="evenodd" clip-rule="evenodd" d="M45.5628 15.74C45.0047 15.7437 44.5493 15.2942 44.5457 14.7361C44.5222 11.1541 41.8077 6.3854 36.1731 6.42222C35.615 6.42587 35.1596 5.9764 35.156 5.41829C35.1523 4.86019 35.6018 4.4048 36.1599 4.40115C43.2452 4.35484 46.5384 10.3915 46.5667 14.7229C46.5704 15.281 46.1209 15.7364 45.5628 15.74Z" fill="url(#paint38_radial_2040_6575)"/>
<path fill-rule="evenodd" clip-rule="evenodd" d="M45.5628 15.74C45.0047 15.7437 44.5493 15.2942 44.5457 14.7361C44.5222 11.1541 41.8077 6.3854 36.1731 6.42222C35.615 6.42587 35.1596 5.9764 35.156 5.41829C35.1523 4.86019 35.6018 4.4048 36.1599 4.40115C43.2452 4.35484 46.5384 10.3915 46.5667 14.7229C46.5704 15.281 46.1209 15.7364 45.5628 15.74Z" fill="url(#paint39_radial_2040_6575)"/>
<g filter="url(#filter0_f_2040_6575)">
<path d="M42.2459 27.9466C38.6131 29.4115 30.397 34.2227 27.981 44.9421" stroke="#FFC339" stroke-width="2" stroke-linecap="round"/>
</g>
<defs>
<filter id="filter0_f_2040_6575" x="24.9808" y="24.9463" width="20.2654" height="22.9961" filterUnits="userSpaceOnUse" color-interpolation-filters="sRGB">
<feFlood flood-opacity="0" result="BackgroundImageFix"/>
<feBlend mode="normal" in="SourceGraphic" in2="BackgroundImageFix" result="shape"/>
<feGaussianBlur stdDeviation="1" result="effect1_foregroundBlur_2040_6575"/>
</filter>
<radialGradient id="paint0_radial_2040_6575" cx="0" cy="0" r="1" gradientUnits="userSpaceOnUse" gradientTransform="translate(36.1262 26.8333) rotate(60.1006) scale(39.4725 25.7868)">
<stop offset="0.00323036" stop-color="#FFC133"/>
<stop offset="0.697824" stop-color="#FFC53F"/>
<stop offset="0.797459" stop-color="#FFAD3E"/>
<stop offset="0.945275" stop-color="#EC7D58"/>
</radialGradient>
<radialGradient id="paint1_radial_2040_6575" cx="0" cy="0" r="1" gradientUnits="userSpaceOnUse" gradientTransform="translate(55.8023 35.5052) rotate(-93.0118) scale(23.4189 8.9717)">
<stop offset="0.00323036" stop-color="#FFE849"/>
<stop offset="1" stop-color="#FFE647" stop-opacity="0"/>
</radialGradient>
<radialGradient id="paint2_radial_2040_6575" cx="0" cy="0" r="1" gradientUnits="userSpaceOnUse" gradientTransform="translate(52.9899 18.7476) rotate(99.6824) scale(12.5419 4.80478)">
<stop offset="0.00323036" stop-color="#FFE849"/>
<stop offset="1" stop-color="#FFE647" stop-opacity="0"/>
</radialGradient>
<radialGradient id="paint3_radial_2040_6575" cx="0" cy="0" r="1" gradientUnits="userSpaceOnUse" gradientTransform="translate(45.339 26.3007) scale(5.07277 20.5719)">
<stop stop-color="#EE9F2C"/>
<stop offset="1" stop-color="#EE9F2C" stop-opacity="0"/>
</radialGradient>
<radialGradient id="paint4_radial_2040_6575" cx="0" cy="0" r="1" gradientUnits="userSpaceOnUse" gradientTransform="translate(47.565 34.2756) rotate(-94.0856) scale(8.5382 5.93047)">
<stop stop-color="#FFC93D"/>
<stop offset="1" stop-color="#FFC33A" stop-opacity="0"/>
</radialGradient>
<radialGradient id="paint5_radial_2040_6575" cx="0" cy="0" r="1" gradientUnits="userSpaceOnUse" gradientTransform="translate(42.7946 21.3136) rotate(151.024) scale(8.97503 18.0291)">
<stop offset="0.563302" stop-color="#F09D2E" stop-opacity="0"/>
<stop offset="1" stop-color="#F09D2E"/>
</radialGradient>
<linearGradient id="paint6_linear_2040_6575" x1="38.2101" y1="30.5085" x2="38.2101" y2="25.6614" gradientUnits="userSpaceOnUse">
<stop stop-color="#FFC337"/>
<stop offset="1" stop-color="#FFC337" stop-opacity="0"/>
</linearGradient>
<radialGradient id="paint7_radial_2040_6575" cx="0" cy="0" r="1" gradientUnits="userSpaceOnUse" gradientTransform="translate(40.9196 14.1771) rotate(-13.4957) scale(6.02576 13.3252)">
<stop stop-color="#FFEC4C"/>
<stop offset="1" stop-color="#FFEC4C" stop-opacity="0"/>
</radialGradient>
<radialGradient id="paint8_radial_2040_6575" cx="0" cy="0" r="1" gradientUnits="userSpaceOnUse" gradientTransform="translate(31.0812 12.1187) rotate(33.3063) scale(5.88273 4.56092)">
<stop stop-color="#D99F2B"/>
<stop offset="1" stop-color="#D99F2B" stop-opacity="0"/>
</radialGradient>
<linearGradient id="paint9_linear_2040_6575" x1="32.0133" y1="23.9622" x2="34.943" y2="22.556" gradientUnits="userSpaceOnUse">
<stop stop-color="#A85300"/>
<stop offset="0.824742" stop-color="#A85300" stop-opacity="0"/>
</linearGradient>
<radialGradient id="paint10_radial_2040_6575" cx="0" cy="0" r="1" gradientUnits="userSpaceOnUse" gradientTransform="translate(34.3366 24.0874) rotate(149.148) scale(8.65153 18.054)">
<stop offset="0.563302" stop-color="#F09D2E" stop-opacity="0"/>
<stop offset="1" stop-color="#F09D2E"/>
</radialGradient>
<linearGradient id="paint11_linear_2040_6575" x1="29.9999" y1="33.4702" x2="29.9999" y2="28.5241" gradientUnits="userSpaceOnUse">
<stop stop-color="#FFC337"/>
<stop offset="1" stop-color="#FFC337" stop-opacity="0"/>
</linearGradient>
<radialGradient id="paint12_radial_2040_6575" cx="0" cy="0" r="1" gradientUnits="userSpaceOnUse" gradientTransform="translate(33.3397 18.5718) rotate(-33.8929) scale(5.74153 17.4801)">
<stop stop-color="#FFEC4C"/>
<stop offset="1" stop-color="#FFEC4C" stop-opacity="0"/>
</radialGradient>
<radialGradient id="paint13_radial_2040_6575" cx="0" cy="0" r="1" gradientUnits="userSpaceOnUse" gradientTransform="translate(28.9664 25.6616) rotate(-24.9048) scale(7.23532 33.0372)">
<stop offset="0.597587" stop-color="#F09D2E" stop-opacity="0"/>
<stop offset="1" stop-color="#F09D2E"/>
</radialGradient>
<radialGradient id="paint14_radial_2040_6575" cx="0" cy="0" r="1" gradientUnits="userSpaceOnUse" gradientTransform="translate(22.4039 14.7046) rotate(32.6006) scale(5.98146 4.76732)">
<stop stop-color="#D99F2B"/>
<stop offset="1" stop-color="#D99F2B" stop-opacity="0"/>
</radialGradient>
<linearGradient id="paint15_linear_2040_6575" x1="25.0406" y1="26.8335" x2="26.99" y2="25.4706" gradientUnits="userSpaceOnUse">
<stop stop-color="#A85300"/>
<stop offset="0.824742" stop-color="#A85300" stop-opacity="0"/>
</linearGradient>
<radialGradient id="paint16_radial_2040_6575" cx="0" cy="0" r="1" gradientUnits="userSpaceOnUse" gradientTransform="translate(29.3162 31.5869) rotate(137.351) scale(7.16733 14.035)">
<stop offset="0.563302" stop-color="#F09D2E" stop-opacity="0"/>
<stop offset="1" stop-color="#F09D2E"/>
</radialGradient>
<linearGradient id="paint17_linear_2040_6575" x1="25.2032" y1="39.4604" x2="25.2032" y2="35.3099" gradientUnits="userSpaceOnUse">
<stop stop-color="#FFC337"/>
<stop offset="1" stop-color="#FFC337" stop-opacity="0"/>
</linearGradient>
<radialGradient id="paint18_radial_2040_6575" cx="0" cy="0" r="1" gradientUnits="userSpaceOnUse" gradientTransform="translate(27.5573 25.4343) rotate(-12.2956) scale(5.45877 11.5632)">
<stop stop-color="#FFEC4C"/>
<stop offset="1" stop-color="#FFEC4C" stop-opacity="0"/>
</radialGradient>
<radialGradient id="paint19_radial_2040_6575" cx="0" cy="0" r="1" gradientUnits="userSpaceOnUse" gradientTransform="translate(24.223 32.9079) rotate(-40.2165) scale(7.59297 38.818)">
<stop offset="0.597587" stop-color="#F09D2E" stop-opacity="0"/>
<stop offset="1" stop-color="#F09D2E"/>
</radialGradient>
<radialGradient id="paint20_radial_2040_6575" cx="0" cy="0" r="1" gradientUnits="userSpaceOnUse" gradientTransform="translate(17.999 23.7134) rotate(29.5034) scale(5.49122 4.13284)">
<stop stop-color="#D99F2B"/>
<stop offset="1" stop-color="#D99F2B" stop-opacity="0"/>
</radialGradient>
<radialGradient id="paint21_radial_2040_6575" cx="0" cy="0" r="1" gradientUnits="userSpaceOnUse" gradientTransform="translate(20.8805 34.5092) rotate(-45.7639) scale(3.10768 14.0315)">
<stop stop-color="#A85300"/>
<stop offset="0.824742" stop-color="#A85300" stop-opacity="0"/>
</radialGradient>
<radialGradient id="paint22_radial_2040_6575" cx="0" cy="0" r="1" gradientUnits="userSpaceOnUse" gradientTransform="translate(27.7221 39.7387) rotate(143.369) scale(7.04629 13.258)">
<stop offset="0.563302" stop-color="#F09D2E" stop-opacity="0"/>
<stop offset="1" stop-color="#F09D2E"/>
</radialGradient>
<radialGradient id="paint23_radial_2040_6575" cx="0" cy="0" r="1" gradientUnits="userSpaceOnUse" gradientTransform="translate(25.8354 34.4118) rotate(-9.97765) scale(5.80884 10.0914)">
<stop stop-color="#FFEC4C"/>
<stop offset="1" stop-color="#FFEC4C" stop-opacity="0"/>
</radialGradient>
<radialGradient id="paint24_radial_2040_6575" cx="0" cy="0" r="1" gradientUnits="userSpaceOnUse" gradientTransform="translate(22.2589 40.8824) rotate(-34.3137) scale(7.52967 36.3527)">
<stop offset="0.597587" stop-color="#F09D2E" stop-opacity="0"/>
<stop offset="1" stop-color="#F09D2E"/>
</radialGradient>
<radialGradient id="paint25_radial_2040_6575" cx="0" cy="0" r="1" gradientUnits="userSpaceOnUse" gradientTransform="translate(15.5828 32.9219) rotate(24.5478) scale(5.63569 3.73972)">
<stop stop-color="#D99F2B"/>
<stop offset="1" stop-color="#D99F2B" stop-opacity="0"/>
</radialGradient>
<linearGradient id="paint26_linear_2040_6575" x1="28.0289" y1="52.6149" x2="23.3103" y2="42.9621" gradientUnits="userSpaceOnUse">
<stop stop-color="#FFC337"/>
<stop offset="1" stop-color="#FFC337" stop-opacity="0"/>
</linearGradient>
<radialGradient id="paint27_radial_2040_6575" cx="0" cy="0" r="1" gradientUnits="userSpaceOnUse" gradientTransform="translate(44.9039 24.3724) rotate(129.014) scale(32.5775 52.6848)">
<stop offset="0.872168" stop-color="#F6814F" stop-opacity="0"/>
<stop offset="1" stop-color="#F7814F"/>
</radialGradient>
<radialGradient id="paint28_radial_2040_6575" cx="0" cy="0" r="1" gradientUnits="userSpaceOnUse" gradientTransform="translate(38.107 24.7239) rotate(76.293) scale(34.6187 37.9843)">
<stop offset="0.853453" stop-color="#F6814F" stop-opacity="0"/>
<stop offset="1" stop-color="#F7814F"/>
</radialGradient>
<radialGradient id="paint29_radial_2040_6575" cx="0" cy="0" r="1" gradientUnits="userSpaceOnUse" gradientTransform="translate(45.9586 15.9349) rotate(64.44) scale(5.97541 5.32698)">
<stop stop-color="#D99F2B"/>
<stop offset="1" stop-color="#D99F2B" stop-opacity="0"/>
</radialGradient>
<radialGradient id="paint30_radial_2040_6575" cx="0" cy="0" r="1" gradientUnits="userSpaceOnUse" gradientTransform="translate(45.8708 27.3607) rotate(149.254) scale(2.2755 7.04126)">
<stop offset="0.200941" stop-color="#B4813D"/>
<stop offset="1" stop-color="#B4813D" stop-opacity="0"/>
</radialGradient>
<radialGradient id="paint31_radial_2040_6575" cx="0" cy="0" r="1" gradientUnits="userSpaceOnUse" gradientTransform="translate(9.17403 33.1227) rotate(62.071) scale(9.96031 14.7716)">
<stop stop-color="#419FFD"/>
<stop offset="1" stop-color="#4B6DCB"/>
</radialGradient>
<radialGradient id="paint32_radial_2040_6575" cx="0" cy="0" r="1" gradientUnits="userSpaceOnUse" gradientTransform="translate(6.35735 33.8649) rotate(2.38594) scale(1.40747 2.96203)">
<stop stop-color="#5486C7"/>
<stop offset="1" stop-color="#5486C7" stop-opacity="0"/>
</radialGradient>
<radialGradient id="paint33_radial_2040_6575" cx="0" cy="0" r="1" gradientUnits="userSpaceOnUse" gradientTransform="translate(16.9042 41.8922) rotate(111.801) scale(1.41992 4.17651)">
<stop stop-color="#5486C7"/>
<stop offset="1" stop-color="#5486C7" stop-opacity="0"/>
</radialGradient>
<radialGradient id="paint34_radial_2040_6575" cx="0" cy="0" r="1" gradientUnits="userSpaceOnUse" gradientTransform="translate(9.90223 38.318) rotate(94.7123) scale(7.87819 13.2464)">
<stop stop-color="#419FFD"/>
<stop offset="1" stop-color="#4B6DCB"/>
</radialGradient>
<radialGradient id="paint35_radial_2040_6575" cx="0" cy="0" r="1" gradientUnits="userSpaceOnUse" gradientTransform="translate(3.2288 37.4101) rotate(2.38479) scale(1.34257 2.82408)">
<stop stop-color="#5486C7"/>
<stop offset="1" stop-color="#5486C7" stop-opacity="0"/>
</radialGradient>
<radialGradient id="paint36_radial_2040_6575" cx="0" cy="0" r="1" gradientUnits="userSpaceOnUse" gradientTransform="translate(34.702 5.29168) rotate(60.1958) scale(8.36848 12.4108)">
<stop stop-color="#419FFD"/>
<stop offset="1" stop-color="#4B6DCB"/>
</radialGradient>
<radialGradient id="paint37_radial_2040_6575" cx="0" cy="0" r="1" gradientUnits="userSpaceOnUse" gradientTransform="translate(31.2563 8.32203) rotate(18.8618) scale(1.20396 1.93784)">
<stop stop-color="#4D8AC1"/>
<stop offset="1" stop-color="#4D8AC1" stop-opacity="0"/>
</radialGradient>
<radialGradient id="paint38_radial_2040_6575" cx="0" cy="0" r="1" gradientUnits="userSpaceOnUse" gradientTransform="translate(38.2253 2.32184) rotate(60.69) scale(10.3962 15.422)">
<stop stop-color="#419FFD"/>
<stop offset="1" stop-color="#4B6DCB"/>
</radialGradient>
<radialGradient id="paint39_radial_2040_6575" cx="0" cy="0" r="1" gradientUnits="userSpaceOnUse" gradientTransform="translate(34.9385 5.21107) rotate(18.8531) scale(1.14839 1.84768)">
<stop stop-color="#4D8AC1"/>
<stop offset="1" stop-color="#4D8AC1" stop-opacity="0"/>
</radialGradient>
</defs>
</svg>
