<svg width="116" height="24" viewBox="0 0 116 24" fill="none" xmlns="http://www.w3.org/2000/svg">
<g clip-path="url(#clip0_2040_6963)">
<path d="M3.69728 4.87867C3.69728 4.87867 7.20983 2.17339 13.7579 7.23794C20.306 12.3025 14.659 16.6441 13.0972 10.6146C13.0972 10.6146 14.2386 18.5135 18.5038 15.6194C22.769 12.7252 19.2844 5.9115 16.2812 3.19811C13.2772 0.484718 6.66887 -1.62594 3.30552 1.75067C-0.0585605 5.12729 3.69801 4.87867 3.69801 4.87867H3.69728Z" fill="url(#paint0_linear_2040_6963)"/>
<path d="M7.33011 0.00231661C7.33011 0.00231661 4.20637 -0.178429 1.56332 2.83596C-1.08047 5.85108 0.247676 10.0702 1.08263 12.0008C1.57876 13.0499 4.0263 18.6338 15.5003 24.0001V18.8146C15.5003 18.8146 9.01252 15.7994 5.5279 10.1919C2.04401 4.58439 4.0263 0.665541 7.33011 0.00231661Z" fill="url(#paint1_radial_2040_6963)"/>
<path d="M27.3031 4.87867C27.3031 4.87867 23.7905 2.17339 17.2425 7.23795C10.6944 12.3025 15.7592 16.0067 18.5037 15.6194C18.5037 15.6194 15.6806 17.7898 12.4966 15.6194C8.23138 12.7252 11.716 5.9115 14.7192 3.19811C17.7231 0.484718 24.3308 -1.62594 27.6949 1.75067C31.0589 5.12729 27.3031 4.87867 27.3031 4.87867Z" fill="url(#paint2_radial_2040_6963)"/>
<path d="M23.6697 0.00219454C23.6697 0.00219454 26.7935 -0.178551 29.4365 2.83584C32.0796 5.85096 30.7522 10.0701 29.9172 12.0007C29.4211 13.0498 26.9736 18.6337 15.4995 24V18.8144C15.4995 18.8144 21.9873 15.7993 25.472 10.1918C28.9559 4.58427 26.9736 0.665418 23.6697 0.00219454Z" fill="url(#paint3_radial_2040_6963)"/>
</g>
<path d="M44.648 13.976L42.656 7.64H42.632L40.592 13.976H44.648ZM50.24 20H46.616L45.608 16.712H39.728L38.6 20H35.072L40.76 4.064H44.624L50.24 20ZM54.2379 20H51.1179V8.192H54.2379V20ZM54.2379 6.776H51.1179V3.872H54.2379V6.776ZM61.2551 17.768C62.7431 17.768 63.8951 16.376 63.8951 14.384C63.8951 11.816 63.0071 10.544 61.2791 10.544C59.4551 10.544 58.5911 11.768 58.5911 14.192C58.5911 16.304 59.6951 17.768 61.2551 17.768ZM66.8471 20H63.8471L63.8231 18.56C63.0791 19.76 61.9751 20.312 60.5351 20.312C57.5591 20.312 55.4231 17.96 55.4231 13.976C55.4231 10.4 57.2231 7.88 60.2711 7.88C61.7351 7.88 62.8871 8.48 63.7751 9.728V3.872H66.8471V20ZM80.2496 20H68.1536V4.064H79.8656V6.848H71.3936V10.256H79.1936V13.064H71.3936V17.168H80.2496V20ZM88.151 15.512L88.175 14.216C87.863 14.528 87.311 14.696 86.159 14.912C84.383 15.248 83.807 15.752 83.807 16.76C83.807 17.648 84.335 18.08 85.319 18.08C86.927 18.08 88.127 16.904 88.151 15.512ZM91.295 20H88.391C88.295 19.712 88.223 19.304 88.199 18.944C87.455 19.76 86.207 20.312 84.623 20.312C81.935 20.312 80.687 18.992 80.687 17.072C80.687 13.664 82.967 13.28 86.111 12.848C87.671 12.632 88.103 12.32 88.103 11.504C88.103 10.736 87.335 10.28 86.111 10.28C84.695 10.28 84.119 10.976 83.975 12.032H81.071C81.119 9.584 82.463 7.88 86.255 7.88C89.999 7.88 91.295 9.56 91.295 12.536V20ZM102.775 11.768H99.7749C99.6069 10.616 98.9829 10.208 97.5669 10.208C96.3909 10.208 95.7189 10.496 95.7189 11.192C95.7189 11.888 96.3669 12.176 97.6389 12.536C98.9829 12.92 100.255 13.184 101.167 13.544C102.415 14.048 103.111 14.864 103.111 16.4C103.111 18.848 101.311 20.312 97.9509 20.312C94.3269 20.312 92.3109 18.608 92.2629 16.208H95.4789C95.4789 17.312 96.4149 17.96 97.9269 17.96C99.0309 17.96 100.015 17.624 100.015 16.736C100.015 15.896 99.1269 15.632 98.1189 15.392C96.1269 14.912 95.0229 14.576 94.1829 14.048C93.0789 13.352 92.6949 12.44 92.6949 11.384C92.6949 9.392 94.0629 7.88 97.6629 7.88C101.071 7.88 102.607 9.224 102.775 11.768ZM106.943 12.944H111.767C111.719 11.192 110.567 10.352 109.343 10.352C108.095 10.352 107.063 11.312 106.943 12.944ZM114.983 14.912H106.847C106.943 16.688 107.951 17.84 109.487 17.84C110.495 17.84 111.383 17.336 111.599 16.52H114.815C114.095 18.944 112.151 20.312 109.631 20.312C105.695 20.312 103.727 18.152 103.727 13.88C103.727 10.232 105.815 7.88 109.439 7.88C113.063 7.88 114.983 10.232 114.983 14.912Z" fill="#111111"/>
<defs>
<linearGradient id="paint0_linear_2040_6963" x1="21.4291" y1="13.1575" x2="2.87383" y2="0.863344" gradientUnits="userSpaceOnUse">
<stop offset="0.065" stop-color="#105945"/>
<stop offset="0.2" stop-color="#34806B"/>
<stop offset="0.29" stop-color="#50A08A"/>
<stop offset="0.44" stop-color="#105945"/>
<stop offset="0.68" stop-color="#50A08A"/>
<stop offset="0.9" stop-color="#105945"/>
</linearGradient>
<radialGradient id="paint1_radial_2040_6963" cx="0" cy="0" r="1" gradientUnits="userSpaceOnUse" gradientTransform="translate(7.768 12.0104) rotate(118.431) scale(28.5741 16.5394)">
<stop stop-color="#50A08A"/>
<stop offset="1" stop-color="#226B57"/>
</radialGradient>
<radialGradient id="paint2_radial_2040_6963" cx="0" cy="0" r="1" gradientUnits="userSpaceOnUse" gradientTransform="translate(16.8396 7.47402) rotate(-137.964) scale(18.5439 12.0583)">
<stop stop-color="#50A08A"/>
<stop offset="1" stop-color="#105945"/>
</radialGradient>
<radialGradient id="paint3_radial_2040_6963" cx="0" cy="0" r="1" gradientUnits="userSpaceOnUse" gradientTransform="translate(22.6027 12.4453) rotate(-163.101) scale(11.8526 24.1353)">
<stop stop-color="#50A08A"/>
<stop offset="1" stop-color="#226B57"/>
</radialGradient>
<clipPath id="clip0_2040_6963">
<rect width="31" height="24" fill="white"/>
</clipPath>
</defs>
</svg>
