<svg width="14" height="14" viewBox="0 0 14 14" fill="none" xmlns="http://www.w3.org/2000/svg">
<g clip-path="url(#clip0_2040_3359)">
<path d="M7.00232 3.40576C6.53057 3.40569 6.06343 3.49855 5.62757 3.67904C5.19171 3.85954 4.79569 4.12413 4.46211 4.45771C4.12853 4.79129 3.86393 5.18732 3.68344 5.62318C3.50294 6.05903 3.41008 6.52618 3.41016 6.99793C3.41008 7.46968 3.50294 7.93683 3.68344 8.37268C3.86393 8.80854 4.12853 9.20457 4.46211 9.53815C4.79569 9.87172 5.19171 10.1363 5.62757 10.3168C6.06343 10.4973 6.53057 10.5902 7.00232 10.5901C7.47407 10.5902 7.94122 10.4973 8.37708 10.3168C8.81293 10.1363 9.20896 9.87172 9.54254 9.53815C9.87612 9.20457 10.1407 8.80854 10.3212 8.37268C10.5017 7.93683 10.5946 7.46968 10.5945 6.99793C10.5946 6.52618 10.5017 6.05903 10.3212 5.62318C10.1407 5.18732 9.87612 4.79129 9.54254 4.45771C9.20896 4.12413 8.81293 3.85954 8.37708 3.67904C7.94122 3.49855 7.47407 3.40569 7.00232 3.40576ZM7.00232 9.32951C6.54134 9.3294 6.09075 9.1926 5.70751 8.93642C5.32427 8.68025 5.02559 8.31619 4.84923 7.89028C4.67288 7.46437 4.62676 6.99573 4.71672 6.54361C4.80668 6.0915 5.02868 5.67621 5.35464 5.35025C5.6806 5.02428 6.09589 4.80229 6.54801 4.71233C7.00012 4.62237 7.46876 4.66848 7.89467 4.84484C8.32058 5.02119 8.68464 5.31987 8.94082 5.70311C9.197 6.08636 9.33379 6.53695 9.33391 6.99793C9.33406 7.30416 9.27386 7.60742 9.15674 7.89037C9.03962 8.17332 8.86788 8.43041 8.65134 8.64695C8.43481 8.86349 8.17771 9.03522 7.89476 9.15234C7.61181 9.26946 7.30855 9.32967 7.00232 9.32951Z" fill="#111111"/>
<path d="M9.88622 0.0444638C8.59822 -0.0156195 5.40797 -0.0127028 4.1188 0.0444638C2.98597 0.0975472 1.98672 0.37113 1.18114 1.17671C-0.165195 2.52305 0.00688843 4.33721 0.00688843 6.9978C0.00688843 9.7208 -0.144778 11.493 1.18114 12.8189C2.53272 14.1699 4.37314 13.9931 7.00222 13.9931C9.69955 13.9931 10.6306 13.9949 11.5843 13.6256C12.8811 13.1222 13.8599 11.9631 13.9556 9.88121C14.0162 8.59263 14.0127 5.40296 13.9556 4.1138C13.8401 1.65621 12.5211 0.165797 9.88622 0.0444638ZM11.925 11.9281C11.0424 12.8107 9.81797 12.732 6.9853 12.732C4.06864 12.732 2.89906 12.7751 2.04564 11.9194C1.06272 10.9411 1.24064 9.37021 1.24064 6.98846C1.24064 3.76555 0.909888 1.44446 4.14447 1.2788C4.88764 1.25255 5.10639 1.2438 6.97714 1.2438L7.00339 1.2613C10.112 1.2613 12.5509 0.935797 12.6973 4.1698C12.7306 4.90771 12.7381 5.12938 12.7381 6.99721C12.7376 9.88005 12.7924 11.0566 11.925 11.9281Z" fill="#111111"/>
<path d="M10.7366 4.10315C11.2002 4.10315 11.5761 3.72733 11.5761 3.26373C11.5761 2.80014 11.2002 2.42432 10.7366 2.42432C10.273 2.42432 9.89722 2.80014 9.89722 3.26373C9.89722 3.72733 10.273 4.10315 10.7366 4.10315Z" fill="#111111"/>
</g>
<defs>
<clipPath id="clip0_2040_3359">
<rect width="14" height="14" fill="white"/>
</clipPath>
</defs>
</svg>
