<svg width="14" height="14" viewBox="0 0 14 14" fill="none" xmlns="http://www.w3.org/2000/svg">
<path d="M1.68268 0.012207C0.752805 0.012207 0.000150441 0.766215 0 1.69398C0 2.62265 0.752654 3.37651 1.68283 3.37651C2.61044 3.37651 3.36415 2.62265 3.36415 1.69398C3.36415 0.766065 2.61029 0.012207 1.68268 0.012207ZM0.231378 4.6527H3.13293V13.9881H0.231378V4.6527ZM10.5196 4.42057C9.10812 4.42057 8.1617 5.19443 7.77432 5.92828H7.7355V4.6527H4.9525V13.988H7.85149V9.36976C7.85149 8.15224 8.08332 6.97294 9.59284 6.97294C11.0807 6.97294 11.1006 8.36542 11.1006 9.44784V13.9878H14V8.86744C14 6.35403 13.4577 4.42057 10.5196 4.42057Z" fill="#111111"/>
</svg>
