<svg width="108" height="105" viewBox="0 0 108 105" fill="none" xmlns="http://www.w3.org/2000/svg">
<path d="M93.2443 13.5772C93.5882 12.188 93.5339 10.7299 93.0875 9.36988C92.6412 8.0099 91.821 6.80304 90.7207 5.88754C89.627 4.96333 88.2951 4.36598 86.8777 4.16397C85.4603 3.96196 84.0148 4.16346 82.7069 4.74537L58.7767 15.2793C58.2748 15.5002 57.7266 15.5957 57.1794 15.5575C56.6323 15.5193 56.1026 15.3486 55.636 15.06L33.3923 1.3138C32.1772 0.556957 30.7737 0.157695 29.3424 0.16177C27.9111 0.165843 26.5101 0.573085 25.2997 1.33683C24.084 2.09123 23.1053 3.17287 22.4759 4.45789C21.8464 5.74291 21.5916 7.17935 21.7406 8.60272L24.3699 34.6215C24.4828 35.73 24.0404 36.8222 23.1913 37.5428L3.25009 54.4533C2.15464 55.3748 1.34108 56.5865 0.902668 57.9494C0.464259 59.3124 0.418747 60.7714 0.771349 62.1592C1.11326 63.5491 1.83966 64.8147 2.86734 65.811C3.89502 66.8073 5.18243 67.494 6.58209 67.7926L32.1341 73.3392C33.2239 73.5764 34.1289 74.3332 34.5505 75.3622L44.4759 99.5562C44.8874 100.591 45.5238 101.521 46.339 102.279C47.1542 103.037 48.1278 103.604 49.1893 103.94C52.5613 105.029 56.3755 103.618 58.1871 100.51L71.3498 77.92C71.6312 77.4503 72.0199 77.054 72.4841 76.7637C72.9483 76.4733 73.4747 76.2971 74.0201 76.2496L100.094 74.2945C101.334 74.2089 102.535 73.8195 103.589 73.1606C105.507 71.9611 106.791 69.9712 107.112 67.7049C107.275 66.6037 107.191 65.48 106.866 64.4152C106.541 63.3505 105.983 62.3714 105.233 61.5489L87.8169 42.0406C87.4516 41.6308 87.1913 41.1383 87.0586 40.6056C86.9258 40.0729 86.9246 39.5159 87.0549 38.9826L93.2443 13.5772Z" fill="#F2753E"/>
</svg>
